<svg xmlns="http://www.w3.org/2000/svg" width="92" height="26" fill="none" viewBox="0 0 92 26">
  <path fill="currentColor" d="M.852 24.689c1.191 1.453 3.547.61 3.547-1.268V10.985a2 2 0 0 0-.454-1.27l-.4-.485C2.356 7.779 0 8.62 0 10.5v12.434a2 2 0 0 0 .453 1.268l.4.487Zm33.337.136c1.261 1.254 3.41.36 3.41-1.419V7.112a2 2 0 0 0-.652-1.477l-.399-.364c-1.284-1.172-3.349-.261-3.349 1.477v6.117c0 1.779-2.148 2.672-3.41 1.419L21.052 5.6c-1.262-1.254-3.41-.36-3.41 1.419v14.63a2 2 0 0 0 2 2h.4a2 2 0 0 0 2-2V17.56c0-1.779 2.147-2.672 3.41-1.419l8.738 8.683Zm35.042-1.175c1.572 0 2.53-1.73 1.695-3.062L61.113 4.917a2 2 0 0 0-3.389-.002l-9.836 15.671c-.837 1.332.12 3.063 1.694 3.063h5.628a2 2 0 0 0 1.693-.935l.783-1.244a1.43 1.43 0 0 0-1.21-2.191 1.43 1.43 0 0 1-1.211-2.19l2.459-3.915a2 2 0 0 1 3.389.002l5.968 9.534a2 2 0 0 0 1.695.94h.455Zm15.569 0c3.654 0 6.598-2.925 6.598-6.557v-9.98a2 2 0 0 0-.652-1.478l-.398-.364c-1.284-1.172-3.35-.261-3.35 1.477v10.345c0 1.221-.97 2.185-2.199 2.185H82.48c-1.697 0-2.623 1.981-1.534 3.283l.31.371a2 2 0 0 0 1.534.717h2.01ZM.853 5.53c1.19 1.452 3.546.61 3.546-1.269V3.072a2 2 0 0 0-.454-1.269l-.4-.486C2.356-.134 0 .71 0 2.587v1.187a2 2 0 0 0 .453 1.268l.4.487Z"/>
</svg>
